<?xml version="1.0" standalone="no"?><!DOCTYPE svg PUBLIC "-//W3C//DTD SVG 1.1//EN" "http://www.w3.org/Graphics/SVG/1.1/DTD/svg11.dtd"><svg t="1627161999627" class="icon" viewBox="0 0 1024 1024" version="1.1" xmlns="http://www.w3.org/2000/svg" p-id="3004" xmlns:xlink="http://www.w3.org/1999/xlink" width="200" height="200"><defs><style type="text/css">@font-face { font-family: feedback-iconfont; src: url("//at.alicdn.com/t/font_1031158_1uhr8ri0pk5.eot?#iefix") format("embedded-opentype"), url("//at.alicdn.com/t/font_1031158_1uhr8ri0pk5.woff2") format("woff2"), url("//at.alicdn.com/t/font_1031158_1uhr8ri0pk5.woff") format("woff"), url("//at.alicdn.com/t/font_1031158_1uhr8ri0pk5.ttf") format("truetype"), url("//at.alicdn.com/t/font_1031158_1uhr8ri0pk5.svg#iconfont") format("svg"); }
</style></defs><path d="M485.94 417.997H314.367c-16.947 0-30.72-13.773-30.72-30.72s13.773-30.72 30.72-30.72h171.571c16.947 0 30.72 13.773 30.72 30.72s-13.721 30.72-30.72 30.72z m99.071 171.571H314.368c-16.947 0-30.72-13.773-30.72-30.72s13.773-30.72 30.72-30.72H584.96c16.947 0 30.72 13.773 30.72 30.72s-13.722 30.72-30.669 30.72z m92.16 170.598H314.368c-16.947 0-30.72-13.772-30.72-30.72s13.773-30.72 30.72-30.72H677.12c16.947 0 30.72 13.773 30.72 30.72s-13.722 30.72-30.669 30.72z" fill="#FF623E" p-id="3005"></path><path d="M880.538 322.765L611.226 77.005a30.75 30.75 0 0 0-20.685-8.039H289.024c-73.42 0-133.12 59.7-133.12 133.12v617.472c0 73.421 59.7 133.12 133.12 133.12h468.429c73.42 0 133.12-59.699 133.12-133.12V345.446c0-8.652-3.635-16.896-10.035-22.681z m-82.023 8.294H617.83c-6.041 0-10.956-4.915-10.956-10.957V156.16l191.641 174.9z m-41.062 560.128H289.024c-39.526 0-71.68-32.153-71.68-71.68v-617.42c0-39.527 32.154-71.68 71.68-71.68h256.41v189.695c0 39.936 32.46 72.397 72.396 72.397h211.303v427.008c0 39.527-32.154 71.68-71.68 71.68z" fill="#303135" p-id="3006"></path></svg>