<?xml version="1.0" standalone="no"?><!DOCTYPE svg PUBLIC "-//W3C//DTD SVG 1.1//EN" "http://www.w3.org/Graphics/SVG/1.1/DTD/svg11.dtd"><svg t="1627162331659" class="icon" viewBox="0 0 1024 1024" version="1.1" xmlns="http://www.w3.org/2000/svg" p-id="1470" xmlns:xlink="http://www.w3.org/1999/xlink" width="200" height="200"><defs><style type="text/css">@font-face { font-family: feedback-iconfont; src: url("//at.alicdn.com/t/font_1031158_1uhr8ri0pk5.eot?#iefix") format("embedded-opentype"), url("//at.alicdn.com/t/font_1031158_1uhr8ri0pk5.woff2") format("woff2"), url("//at.alicdn.com/t/font_1031158_1uhr8ri0pk5.woff") format("woff"), url("//at.alicdn.com/t/font_1031158_1uhr8ri0pk5.ttf") format("truetype"), url("//at.alicdn.com/t/font_1031158_1uhr8ri0pk5.svg#iconfont") format("svg"); }
</style></defs><path d="M0 48.046921m37.536657 0l375.366569 0q37.536657 0 37.536657 37.536657l0 375.366569q0 37.536657-37.536657 37.536657l-375.366569 0q-37.536657 0-37.536657-37.536657l0-375.366569q0-37.536657 37.536657-37.536657Z" p-id="1471"></path><path d="M461.949672 273.112162m26.542424-26.542425l235.696731-235.696731q26.542425-26.542425 53.084849 0l235.696731 235.696731q26.542425 26.542425 0 53.084849l-235.696731 235.696731q-26.542425 26.542425-53.084849 0l-235.696731-235.696731q-26.542425-26.542425 0-53.084849Z" p-id="1472"></path><path d="M0 573.560117m37.536657 0l375.366569 0q37.536657 0 37.536657 37.536657l0 375.366569q0 37.536657-37.536657 37.536657l-375.366569 0q-37.536657 0-37.536657-37.536657l0-375.366569q0-37.536657 37.536657-37.536657Z" p-id="1473"></path><path d="M525.513196 573.560117m37.536657 0l375.366569 0q37.536657 0 37.536657 37.536657l0 375.366569q0 37.536657-37.536657 37.536657l-375.366569 0q-37.536657 0-37.536657-37.536657l0-375.366569q0-37.536657 37.536657-37.536657Z" p-id="1474"></path></svg>