<?xml version="1.0" standalone="no"?><!DOCTYPE svg PUBLIC "-//W3C//DTD SVG 1.1//EN" "http://www.w3.org/Graphics/SVG/1.1/DTD/svg11.dtd"><svg t="1627170413804" class="icon" viewBox="0 0 1024 1024" version="1.1" xmlns="http://www.w3.org/2000/svg" p-id="1008" xmlns:xlink="http://www.w3.org/1999/xlink" width="200" height="200"><defs><style type="text/css">@font-face { font-family: feedback-iconfont; src: url("//at.alicdn.com/t/font_1031158_1uhr8ri0pk5.eot?#iefix") format("embedded-opentype"), url("//at.alicdn.com/t/font_1031158_1uhr8ri0pk5.woff2") format("woff2"), url("//at.alicdn.com/t/font_1031158_1uhr8ri0pk5.woff") format("woff"), url("//at.alicdn.com/t/font_1031158_1uhr8ri0pk5.ttf") format("truetype"), url("//at.alicdn.com/t/font_1031158_1uhr8ri0pk5.svg#iconfont") format("svg"); }
</style></defs><path d="M762.230634 144.483902a99.902439 99.902439 0 0 1 99.777561 94.907318l0.124878 4.995121v299.707318a24.97561 24.97561 0 0 1-49.801366 2.922146l-0.149853-2.922146v-299.707318a49.95122 49.95122 0 0 0-46.229854-49.801365l-3.746341-0.149854h-549.463415a49.95122 49.95122 0 0 0-49.801366 46.204878l-0.124878 3.746341v549.463415a49.95122 49.95122 0 0 0 46.204878 49.826342l3.746342 0.124878h324.682926a24.97561 24.97561 0 0 1 2.897171 49.77639l-2.897171 0.174829h-324.682926a99.902439 99.902439 0 0 1-99.802537-94.907317l-0.099903-4.995122v-549.463415a99.902439 99.902439 0 0 1 94.907318-99.777561l4.995122-0.124878h549.463414z" fill="#0840F8" p-id="1009"></path><path d="M588.824976 240.764878a24.97561 24.97561 0 0 1 36.888975 33.56722l-2.122927 2.322731-146.307122 141.861464a24.97561 24.97561 0 0 1-32.468292 1.998048l-2.322732-2.023024-97.404878-94.657561-86.690341 86.790244a24.97561 24.97561 0 0 1-32.967805 2.097951l-2.372683-2.072975a24.97561 24.97561 0 0 1-2.072976-32.967805l2.072976-2.347708 104.148292-104.223219a24.97561 24.97561 0 0 1 32.718049-2.272781l2.347708 1.998049 97.654634 94.907317 128.874146-124.952975z" fill="#A1B7FF" p-id="1010"></path><path d="M259.496585 483.153171a24.97561 24.97561 0 0 1 24.800781 22.053463l0.174829 2.922146v74.327415a24.97561 24.97561 0 0 1-49.801366 2.897171l-0.149853-2.897171v-74.327415a24.97561 24.97561 0 0 1 24.975609-24.975609z m114.263415-41.809171a24.97561 24.97561 0 0 1 24.80078 22.078439l0.17483 2.897171v116.136585a24.97561 24.97561 0 0 1-49.801366 2.897171l-0.149854-2.897171v-116.136585a24.97561 24.97561 0 0 1 24.97561-24.97561z m114.238439 21.978537a24.97561 24.97561 0 0 1 24.825756 22.078439l0.149854 2.89717v94.158049a24.97561 24.97561 0 0 1-49.77639 2.897171l-0.17483-2.897171v-94.158049a24.97561 24.97561 0 0 1 24.97561-24.975609z m114.263415-82.469464a24.97561 24.97561 0 0 1 24.825756 22.078439l0.149853 2.897171v176.627512a24.97561 24.97561 0 0 1-49.77639 2.897171l-0.174829-2.897171v-176.627512a24.97561 24.97561 0 0 1 24.97561-24.97561z" fill="#0840F8" p-id="1011"></path><path d="M889.431415 730.211902a35.740098 35.740098 0 0 0-26.174439-27.423219l-3.921171-0.899122a28.322341 28.322341 0 0 1-19.006439-33.117659l1.148878-3.671414v-0.074927a35.84 35.84 0 0 0-10.589659-36.389463l-0.074926-0.049952c-0.899122-0.749268-6.119024-4.995122-18.906537-12.362926s-19.031415-9.765463-20.130342-10.165074a35.715122 35.715122 0 0 0-36.888975 8.916293l-2.747317 2.997073a28.27239 28.27239 0 0 1-38.237659-0.074927l-2.67239-2.847219a35.765073 35.765073 0 0 0-36.913951-8.99122c-1.123902 0.424585-7.317854 2.797268-20.155317 10.190049-12.787512 7.39278-17.982439 11.588683-18.881561 12.337951l-0.049951 0.049952c-10.040195 8.516683-14.485854 23.826732-10.614635 36.364487l1.148878 3.746342a28.322341 28.322341 0 0 1-19.106341 33.142634l-3.846244 0.874146c-12.862439 2.947122-23.876683 14.485854-26.199415 27.448195-0.199805 1.173854-1.24878 7.742439-1.24878 22.552976 0 14.785561 1.048976 21.379122 1.24878 22.552976 2.347707 12.937366 13.336976 24.476098 26.124488 27.47317l3.846244 0.849171a28.397268 28.397268 0 0 1 19.156293 33.217561l-1.123903 3.671415a35.715122 35.715122 0 0 0 10.664586 36.414439c0.899122 0.774244 6.094049 4.995122 18.931512 12.412878 12.812488 7.39278 19.05639 9.765463 20.155317 10.165073 3.496585 1.24878 7.242927 1.873171 11.014244 1.873171 9.590634 0 19.381073-3.896195 25.849756-10.814439l2.622439-2.822244a28.422244 28.422244 0 0 1 38.437463 0.049951l2.497561 2.697366 0.099903 0.099902c8.99122 9.61561 24.476098 13.361951 36.839024 8.916293l0.074927-0.024976c1.098927-0.39961 7.242927-2.797268 20.055415-10.115122l0.074927-0.024975c12.787512-7.417756 17.982439-11.638634 18.906536-12.412878 10.01522-8.491707 14.485854-23.751805 10.664586-36.339512l-1.148879-3.821269a28.322341 28.322341 0 0 1 19.480976-33.267512l3.421659-0.749268a31.469268 31.469268 0 0 0 6.168975-2.147903l2.897171-0.874146v-0.62439a35.715122 35.715122 0 0 0 17.158244-23.876683c0.249756-1.348683 1.24878-7.992195 1.24878-22.552976 0-14.685659-1.073951-21.304195-1.298731-22.478049z m-33.816976 38.537366a3.396683 3.396683 0 0 1-0.549463 0.549464l-17.18322 3.92117v2.372683c-10.01522 5.494634-18.407024 13.611707-24.226341 23.676878l-0.049952 0.074927a62.638829 62.638829 0 0 0-6.668487 45.830244l0.124878 0.499512 1.348683 4.49561a3.496585 3.496585 0 0 1-0.224781 0.774244 144.433951 144.433951 0 0 1-13.486829 8.566634 154.524098 154.524098 0 0 1-14.236098 7.417756 3.671415 3.671415 0 0 1-0.749268-0.199805l-7.692488-8.366829h-1.323707a62.663805 62.663805 0 0 0-37.66322-12.487805c-16.184195 0-31.544195 6.119024-43.23278 17.233171l-0.39961 0.374634-2.997073 3.246829a3.496585 3.496585 0 0 1-0.79922 0.199805 144.583805 144.583805 0 0 1-14.186146-7.39278 143.58478 143.58478 0 0 1-13.511805-8.59161 3.371707 3.371707 0 0 1-0.22478-0.749268l1.323707-4.320781 0.124878-0.499512a62.414049 62.414049 0 0 0-6.668488-46.08 62.68878 62.68878 0 0 0-36.589268-28.821854l-0.574439-0.174829-4.245854-0.949073a3.646439 3.646439 0 0 1-0.599414-0.599415 144.908488 144.908488 0 0 1-0.649366-15.98439c0-9.240976 0.449561-14.261073 0.649366-15.98439a3.596488 3.596488 0 0 1 0.574439-0.574439l4.395707-0.999025 0.549463-0.149853a62.663805 62.663805 0 0 0 43.18283-74.752l-0.124878-0.524488-1.348683-4.395707a3.496585 3.496585 0 0 1 0.22478-0.749269 147.356098 147.356098 0 0 1 13.461854-8.566634c8.017171-4.620488 12.612683-6.743415 14.211122-7.417756 0.249756 0.024976 0.549463 0.124878 0.774244 0.199805l3.096975 3.321756 0.39961 0.374634c11.713561 11.114146 27.048585 17.233171 43.207805 17.233171 16.034341 0 31.34439-6.069073 43.032976-17.083317l0.399609-0.39961 3.24683-3.47161a3.496585 3.496585 0 0 1 0.774243-0.199805c1.573463 0.699317 6.144 2.797268 14.186147 7.417757 7.96722 4.595512 12.06322 7.492683 13.486829 8.566634l0.249756 0.799219-1.348683 4.245854-0.124878 0.549463a62.264195 62.264195 0 0 0 6.668488 46.08c8.042146 13.886439 20.904585 24.076488 36.23961 28.721952l0.549463 0.174829 4.595512 1.048975a3.571512 3.571512 0 0 1 0.599415 0.574439c0.199805 1.698341 0.674341 6.693463 0.674341 15.909464 0 9.340878-0.474537 14.360976-0.674341 16.034341z m-122.580293-78.298536a62.414049 62.414049 0 0 0-62.364097 62.339122 62.439024 62.439024 0 0 0 62.364097 62.339122 62.389073 62.389073 0 0 0 62.339122-62.314147 62.439024 62.439024 0 0 0-62.339122-62.364097z m0 90.236878a27.972683 27.972683 0 0 1-27.922731-27.897756 27.922732 27.922732 0 0 1 55.820487 0c0 15.409951-12.51278 27.897756-27.897756 27.897756z" fill="#0840F8" p-id="1012"></path></svg>